#!OML:ASF I:\Actors\actors\Patient Classification 2\Patient 1\Session 1\actor1.ASF
:FULLY-SPECIFIED
:DEGREES
136
root -0.656833 18.6935 5.72689 2.10761 2.54429 -1.37796
lowerback 0.0302947 1.89404 -0.752689
upperback -0.783241 2.50752 -2.30681
thorax -0.748062 1.2513 -1.95742
lowerneck -13.06 -5.15391 -5.87717
upperneck 22.7497 -8.27013 9.65589
head 10.0446 -3.29144 3.3221
rclavicle 1.05853e-014 7.15625e-015
rhumerus -89.7407 34.0135 -103.284
rradius 97.7935
rwrist -7.69631
rhand 0.219498 -48.5333
rfingers 7.12502
rthumb 25.8006 -76.8037
lclavicle 1.05853e-014 7.15625e-015
lhumerus -45.081 -39.339 101.531
lradius 74.2453
lwrist 21.1506
lhand -2.30596 -16.9253
lfingers 7.12502
lthumb 23.3799 11.6746
rfemur 0 0 0
rtibia 0
rfoot 0 0
rtoes 0
lfemur -5.46661 -8.81699 -12.7804
ltibia 21.7252
lfoot -23.3678 13.8077
ltoes -55.3421
137
root -0.656055 18.6951 5.7154 2.10803 2.39905 -1.35126
lowerback -0.0465801 1.89324 -0.840893
upperback -0.793204 2.50746 -2.30198
thorax -0.719194 1.25183 -1.90052
lowerneck -13.1406 -5.0717 -5.60299
upperneck 22.9902 -8.16496 9.37314
head 10.1112 -3.24209 3.19166
rclavicle 4.21175e-015 8.74653e-015
rhumerus -88.1567 36.1129 -101.628
rradius 99.0386
rwrist -8.84469
rhand 0.0119198 -48.7209
rfingers 7.12502
rthumb 25.6018 -77.02
lclavicle 4.21175e-015 8.74653e-015
lhumerus -45.04 -40.1758 101.337
lradius 76.2596
lwrist 22.2476
lhand -2.74609 -16.6352
lfingers 7.12502
lthumb 22.9576 12.0179
rfemur 0 0 0
rtibia 0
rfoot 0 0
rtoes 0
lfemur -5.4507 -8.75668 -12.822
ltibia 21.6921
lfoot -23.3562 13.9011
ltoes -55.3391
138
root -0.656342 18.6967 5.70393 2.09335 2.20794 -1.37804
lowerback -0.131202 1.91309 -0.837359
upperback -0.795622 2.53573 -2.31216
thorax -0.67289 1.26598 -1.9099
lowerneck -13.1271 -4.975 -5.24815
upperneck 23.1962 -8.05565 9.08253
head 10.1439 -3.1883 3.04641
rclavicle -9.98893e-015 1.82882e-014
rhumerus -86.0211 37.9607 -99.7424
rradius 100.043
rwrist -9.67378
rhand -0.368709 -48.6068
rfingers 7.12502
rthumb 25.2372 -76.9578
lclavicle -9.98893e-015 1.82882e-014
lhumerus -44.8864 -40.8834 101.028
lradius 78.2838
lwrist 23.3399
lhand -2.53267 -16.2368
lfingers 7.12502
lthumb 23.1624 12.3906
rfemur 0 0 0
rtibia 0
rfoot 0 0
rtoes 0
lfemur -5.40922 -8.77537 -12.8143
ltibia 21.6604
lfoot -23.4331 14.0685
ltoes -55.2633
139
root -0.657375 18.6971 5.69275 2.06554 1.99293 -1.40077
lowerback -0.201511 1.9293 -0.862902
upperback -0.797007 2.55889 -2.28543
thorax -0.636619 1.27781 -1.86564
lowerneck -13.1428 -4.8841 -5.018
upperneck 23.468 -7.94288 8.84288
head 10.2143 -3.13586 2.94122
rclavicle -2.45996e-015 3.97569e-015
rhumerus -83.4988 39.5976 -97.6267
rradius 100.859
rwrist -10.058
rhand -1.1036 -47.9672
rfingers 7.12502
rthumb 24.5329 -76.4156
lclavicle -2.45996e-015 3.97569e-015
lhumerus -44.5978 -41.3999 100.712
lradius 80.2256
lwrist 24.4462
lhand -2.25953 -16.0916
lfingers 7.12502
lthumb 23.4245 12.5026
rfemur 0 0 0
rtibia 0
rfoot 0 0
rtoes 0
lfemur -5.34739 -8.71956 -12.8068
ltibia 21.6309
lfoot -23.5021 14.1977
ltoes -55.2287
140
root -0.659545 18.6968 5.68148 1.99704 1.84419 -1.40312
lowerback -0.218121 1.91316 -0.950073
upperback -0.795545 2.5378 -2.20824
thorax -0.633617 1.26791 -1.73711
lowerneck -13.2359 -4.79986 -4.88888
upperneck 23.8588 -7.81225 8.56227
head 10.3445 -3.08402 2.84101
rclavicle -2.73205e-014 -7.15625e-015
rhumerus -80.5468 40.9896 -95.1652
rradius 101.853
rwrist -11.016
rhand -1.51153 -48.1246
rfingers 7.12502
rthumb 24.1418 -76.6255
lclavicle -2.73205e-014 -7.15625e-015
lhumerus -44.2193 -41.6573 100.465
lradius 82.0534
lwrist 25.5392
lhand -1.67817 -15.7901
lfingers 7.12502
lthumb 23.982 12.7319
rfemur 0 0 0
rtibia 0
rfoot 0 0
rtoes 0
lfemur -5.25801 -8.61858 -12.8128
ltibia 21.6034
lfoot -23.4844 14.2477
ltoes -55.2604
141
root -0.661619 18.6963 5.66976 1.88023 1.71189 -1.40556
lowerback -0.187645 1.88879 -0.976652
upperback -0.780187 2.50503 -2.16044
thorax -0.638975 1.25178 -1.67398
lowerneck -13.386 -4.71056 -4.72714
upperneck 24.3421 -7.68761 8.28213
head 10.5205 -3.02889 2.73459
rclavicle 1.72943e-014 -3.97569e-015
rhumerus -77.1752 42.0164 -92.5819
rradius 102.853
rwrist -12.2052
rhand -1.79644 -48.8156
rfingers 7.12502
rthumb 23.8686 -77.3525
lclavicle 1.72943e-014 -3.97569e-015
lhumerus -43.7177 -41.7341 100.169
lradius 83.8388
lwrist 26.7218
lhand -1.51707 -15.0739
lfingers 7.12502
lthumb 24.1365 13.4277
rfemur 0 0 0
rtibia 0
rfoot 0 0
rtoes 0
lfemur -5.11942 -8.59332 -12.8293
ltibia 21.5749
lfoot -23.4981 14.3123
ltoes -55.244
142
root -0.663217 18.6957 5.65665 1.7515 1.54579 -1.3853
lowerback -0.0892559 1.8882 -0.976363
upperback -0.774925 2.50207 -2.15161
thorax -0.689158 1.25027 -1.66864
lowerneck -13.5673 -4.64672 -4.57351
upperneck 24.8717 -7.61659 8.06571
head 10.7293 -2.99046 2.64476
rclavicle 0 9.54166e-015
rhumerus -73.4981 42.6535 -90.0291
rradius 103.663
rwrist -13.1973
rhand -2.24068 -49.2555
rfingers 7.12502
rthumb 23.4425 -77.8475
lclavicle 0 9.54166e-015
lhumerus -43.0715 -41.726 99.8147
lradius 85.6043
lwrist 27.8284
lhand -2.22888 -15.0233
lfingers 7.12502
lthumb 23.4539 13.5672
rfemur 0 0 0
rtibia 0
rfoot 0 0
rtoes 0
lfemur -4.96438 -8.58883 -12.8806
ltibia 21.5479
lfoot -23.578 14.3996
ltoes -55.1326
143
root -0.665731 18.6955 5.64401 1.66835 1.3757 -1.3645
lowerback -0.0118539 1.89014 -1.01524
upperback -0.795742 2.5023 -2.11566
thorax -0.757113 1.25063 -1.6135
lowerneck -13.7041 -4.58422 -4.45205
upperneck 25.4309 -7.54223 7.85067
head 10.9437 -2.95433 2.56229
rclavicle -1.62258e-014 1.03368e-014
rhumerus -69.5177 43.0397 -87.4689
rradius 104.35
rwrist -14.2397
rhand -2.84396 -49.5136
rfingers 7.12502
rthumb 22.8637 -78.1783
lclavicle -1.62258e-014 1.03368e-014
lhumerus -42.3564 -41.5209 99.5122
lradius 87.323
lwrist 28.634
lhand -2.56461 -15.2509
lfingers 7.12502
lthumb 23.1318 13.3804
rfemur 0 0 0
rtibia 0
rfoot 0 0
rtoes 0
lfemur -4.86385 -8.54235 -12.9193
ltibia 21.5298
lfoot -23.6215 14.4867
ltoes -55.04
144
root -0.668411 18.6954 5.63247 1.62399 1.24844 -1.35416
lowerback -0.0308907 1.86119 -1.04338
upperback -0.809348 2.46391 -2.06926
thorax -0.764375 1.23171 -1.54964
lowerneck -13.7971 -4.48926 -4.29467
upperneck 26.0238 -7.42985 7.62482
head 11.1599 -2.89961 2.47621
rclavicle 1.36043e-014 9.54166e-015
rhumerus -65.3169 43.1685 -85.0263
rradius 104.887
rwrist -15.0781
rhand -3.49995 -49.6422
rfingers 7.12502
rthumb 22.2341 -78.3833
lclavicle 1.36043e-014 9.54166e-015
lhumerus -41.6005 -41.1864 99.3026
lradius 88.9557
lwrist 29.5199
lhand -2.68344 -15.0532
lfingers 7.12502
lthumb 23.0177 13.5924
rfemur 0 0 0
rtibia 0
rfoot 0 0
rtoes 0
lfemur -4.81948 -8.51197 -12.9373
ltibia 21.5236
lfoot -23.638 14.5818
ltoes -55.0361
145
root -0.669012 18.6958 5.62261 1.62445 1.18842 -1.37149
lowerback -0.113108 1.81607 -0.973173
upperback -0.856832 2.40501 -2.04542
thorax -0.766174 1.20183 -1.56222
lowerneck -13.8284 -4.41825 -4.09831
upperneck 26.6706 -7.3595 7.37505
head 11.3877 -2.86384 2.36999
rclavicle 2.20589e-014 -1.82882e-014
rhumerus -61.2039 42.8577 -82.9114
rradius 105.281
rwrist -15.6688
rhand -2.76393 -49.9206
rfingers 7.12502
rthumb 22.9405 -78.5757
lclavicle 2.20589e-014 -1.82882e-014
lhumerus -40.8325 -40.8989 99.2151
lradius 90.4715
lwrist 30.6471
lhand -3.13053 -14.743
lfingers 7.12502
lthumb 22.5887 13.9554
rfemur 0 0 0
rtibia 0
rfoot 0 0
rtoes 0
lfemur -4.83514 -8.52268 -12.9194
ltibia 21.5179
lfoot -23.6448 14.661
ltoes -55.0279
146
root -0.668778 18.6975 5.6148 1.65469 1.1279 -1.40272
lowerback -0.210201 1.78344 -0.828429
upperback -0.93859 2.36238 -2.04199
thorax -0.790633 1.17944 -1.63778
lowerneck -13.8499 -4.38072 -3.8763
upperneck 27.341 -7.32329 7.05318
head 11.6239 -2.84959 2.2273
rclavicle -4.39656e-015 3.18055e-015
rhumerus -57.2589 42.1695 -81.1923
rradius 105.552
rwrist -16.3064
rhand -0.733166 -50.4485
rfingers 7.12502
rthumb 24.8879 -78.8482
lclavicle -4.39656e-015 3.18055e-015
lhumerus -39.9097 -40.5047 99.0895
lradius 91.6889
lwrist 31.2962
lhand -3.24607 -14.8071
lfingers 7.12502
lthumb 22.4778 13.9048
rfemur 0 0 0
rtibia 0
rfoot 0 0
rtoes 0
lfemur -4.87794 -8.50894 -12.8808
ltibia 21.5032
lfoot -23.6104 14.7297
ltoes -55.0467
